<?xml version="1.0" encoding="UTF-8" standalone="no"?>
<!-- Created with Inkscape (http://www.inkscape.org/) -->

<svg
   xmlns:dc="http://purl.org/dc/elements/1.1/"
   xmlns:cc="http://creativecommons.org/ns#"
   xmlns:rdf="http://www.w3.org/1999/02/22-rdf-syntax-ns#"
   xmlns:svg="http://www.w3.org/2000/svg"
   xmlns="http://www.w3.org/2000/svg"
   xmlns:sodipodi="http://sodipodi.sourceforge.net/DTD/sodipodi-0.dtd"
   xmlns:inkscape="http://www.inkscape.org/namespaces/inkscape"
   version="1.1"
   width="375"
   height="375"
   id="svg3004"
   xml:space="preserve"
   inkscape:version="0.48.3.1 r9886"
   sodipodi:docname="connectfourwhite.svg"><sodipodi:namedview
     pagecolor="#ffffff"
     bordercolor="#666666"
     borderopacity="1"
     objecttolerance="10"
     gridtolerance="10"
     guidetolerance="10"
     inkscape:pageopacity="0"
     inkscape:pageshadow="2"
     inkscape:window-width="1301"
     inkscape:window-height="744"
     id="namedview3071"
     showgrid="false"
     inkscape:zoom="0.62933333"
     inkscape:cx="187.5"
     inkscape:cy="187.5"
     inkscape:window-x="65"
     inkscape:window-y="24"
     inkscape:window-maximized="1"
     inkscape:current-layer="svg3004" /><metadata
     id="metadata3010"><rdf:RDF><cc:Work
         rdf:about=""><dc:format>image/svg+xml</dc:format><dc:type
           rdf:resource="http://purl.org/dc/dcmitype/StillImage" /><dc:title></dc:title></cc:Work></rdf:RDF></metadata><defs
     id="defs3008"><clipPath
       id="clipPath3024"><path
         d="M 2750,1500 C 2750,809.648 2190.35,250 1500,250 809.648,250 250,809.648 250,1500 c 0,690.35 559.648,1250 1250,1250 690.35,0 1250,-559.65 1250,-1250 z"
         id="path3026" /></clipPath><linearGradient
       x1="0"
       y1="0"
       x2="1"
       y2="0"
       id="linearGradient3028"
       gradientUnits="userSpaceOnUse"
       gradientTransform="matrix(8.72498,249.851,249.851,-8.72498,145.638,25.074)"
       spreadMethod="pad"><stop
         id="stop3030"
         style="stop-color:#3b4ba7;stop-opacity:1"
         offset="0" /><stop
         id="stop3032"
         style="stop-color:#211c1c;stop-opacity:1"
         offset="1" /></linearGradient><clipPath
       id="clipPath3040"><path
         d="M 2500,1500 C 2500,947.711 2052.29,500 1500,500 947.715,500 500,947.711 500,1500 c 0,552.28 447.715,1000 1000,1000 552.29,0 1000,-447.72 1000,-1000 z"
         id="path3042" /></clipPath><linearGradient
       x1="0"
       y1="0"
       x2="1"
       y2="0"
       id="linearGradient3044"
       gradientUnits="userSpaceOnUse"
       gradientTransform="matrix(123.137,-157.608,-157.608,-123.137,88.4316,228.804)"
       spreadMethod="pad"><stop
         id="stop3046"
         style="stop-color:#3b4ba7;stop-opacity:1"
         offset="0" /><stop
         id="stop3048"
         style="stop-color:#211c1c;stop-opacity:1"
         offset="1" /></linearGradient></defs><g
     transform="matrix(1.25,0,0,-1.25,0,375)"
     id="g3012"><g
       transform="scale(0.1,0.1)"
       id="g3014"><path
         d="m 0,0 3000,0 0,3000 L 0,3000 0,0 z"
         id="path3016"
         style="fill:#f8c512;fill-opacity:1;fill-rule:nonzero;stroke:none" /><path
         d="M 2775,1500 C 2775,795.828 2204.16,225 1500,225 795.828,225 224.996,795.828 224.996,1500 c 0,704.16 570.832,1275 1275.004,1275 704.16,0 1275,-570.84 1275,-1275"
         id="path3018"
         style="fill:#f3ef15;fill-opacity:1;fill-rule:nonzero;stroke:none" /><g
         id="g3020"><g
           clip-path="url(#clipPath3024)"
           id="g3022"><path
             d="M 2750,1500 C 2750,809.648 2190.35,250 1500,250 809.648,250 250,809.648 250,1500 c 0,690.35 559.648,1250 1250,1250 690.35,0 1250,-559.65 1250,-1250"
             id="path3034"
             style="fill:url(#linearGradient3028);fill-opacity:1;fill-rule:nonzero;stroke:none" /></g></g><g
         id="g3036"><g
           clip-path="url(#clipPath3040)"
           id="g3038" /></g></g></g></svg>