<?xml version="1.0" encoding="UTF-8" standalone="no"?>
<!-- Created with Inkscape (http://www.inkscape.org/) -->

<svg
   xmlns:dc="http://purl.org/dc/elements/1.1/"
   xmlns:cc="http://creativecommons.org/ns#"
   xmlns:rdf="http://www.w3.org/1999/02/22-rdf-syntax-ns#"
   xmlns:svg="http://www.w3.org/2000/svg"
   xmlns="http://www.w3.org/2000/svg"
   xmlns:sodipodi="http://sodipodi.sourceforge.net/DTD/sodipodi-0.dtd"
   xmlns:inkscape="http://www.inkscape.org/namespaces/inkscape"
   id="svg3004"
   version="1.1"
   inkscape:version="0.48.3.1 r9886"
   width="375"
   height="375"
   xml:space="preserve"
   sodipodi:docname="connectfourred.svg"><metadata
     id="metadata3010"><rdf:RDF><cc:Work
         rdf:about=""><dc:format>image/svg+xml</dc:format><dc:type
           rdf:resource="http://purl.org/dc/dcmitype/StillImage" /><dc:title></dc:title></cc:Work></rdf:RDF></metadata><defs
     id="defs3008"><clipPath
       clipPathUnits="userSpaceOnUse"
       id="clipPath3024"><path
         d="m 2773.81,1476.2 c 0,-690.36 -559.65,-1250.001 -1250,-1250.001 -690.365,0 -1250.001,559.641 -1250.001,1250.001 0,690.35 559.636,1250 1250.001,1250 690.35,0 1250,-559.65 1250,-1250 z"
         id="path3026" /></clipPath><linearGradient
       x1="0"
       y1="0"
       x2="1"
       y2="0"
       gradientUnits="userSpaceOnUse"
       gradientTransform="matrix(8.72499,249.851,249.851,-8.72499,148.019,22.694)"
       spreadMethod="pad"
       id="linearGradient3028"><stop
         style="stop-opacity:1;stop-color:#ed1e24"
         offset="0"
         id="stop3030" /><stop
         style="stop-opacity:1;stop-color:#921f2c"
         offset="1"
         id="stop3032" /></linearGradient><clipPath
       clipPathUnits="userSpaceOnUse"
       id="clipPath3040"><path
         d="m 2523.81,1476.2 c 0,-552.29 -447.72,-1000.001 -1000,-1000.001 -552.283,0 -999.998,447.711 -999.998,1000.001 0,552.28 447.715,1000 999.998,1000 552.28,0 1000,-447.72 1000,-1000 z"
         id="path3042" /></clipPath><linearGradient
       x1="0"
       y1="0"
       x2="1"
       y2="0"
       gradientUnits="userSpaceOnUse"
       gradientTransform="matrix(123.138,-157.609,-157.609,-123.138,90.812,226.425)"
       spreadMethod="pad"
       id="linearGradient3044"><stop
         style="stop-opacity:1;stop-color:#ed1e24"
         offset="0"
         id="stop3046" /><stop
         style="stop-opacity:1;stop-color:#921f2c"
         offset="1"
         id="stop3048" /></linearGradient></defs><sodipodi:namedview
     pagecolor="#ffffff"
     bordercolor="#666666"
     borderopacity="1"
     objecttolerance="10"
     gridtolerance="10"
     guidetolerance="10"
     inkscape:pageopacity="0"
     inkscape:pageshadow="2"
     inkscape:window-width="640"
     inkscape:window-height="480"
     id="namedview3006"
     showgrid="false"
     inkscape:zoom="0.62933333"
     inkscape:cx="187.5"
     inkscape:cy="187.5"
     inkscape:window-x="72"
     inkscape:window-y="24"
     inkscape:window-maximized="0"
     inkscape:current-layer="g3012" /><g
     id="g3012"
     inkscape:groupmode="layer"
     inkscape:label="ink_ext_XXXXXX"
     transform="matrix(1.25,0,0,-1.25,0,375)"><g
       id="g3014"
       transform="scale(0.1,0.1)"><path
         d="m 0,0 3000,0 0,3000 L 0,3000 0,0 z"
         style="fill:#f8c512;fill-opacity:1;fill-rule:nonzero;stroke:none"
         id="path3016" /><path
         d="m 2798.81,1476.2 c 0,-704.169 -570.84,-1275.001 -1275,-1275.001 -704.177,0 -1275.005,570.832 -1275.005,1275.001 0,704.17 570.828,1275 1275.005,1275 704.16,0 1275,-570.83 1275,-1275"
         style="fill:#f3ef15;fill-opacity:1;fill-rule:nonzero;stroke:none"
         id="path3018" /><g
         id="g3020"><g
           id="g3022"
           clip-path="url(#clipPath3024)"><path
             d="m 2773.81,1476.2 c 0,-690.36 -559.65,-1250.001 -1250,-1250.001 -690.365,0 -1250.001,559.641 -1250.001,1250.001 0,690.35 559.636,1250 1250.001,1250 690.35,0 1250,-559.65 1250,-1250"
             style="fill:url(#linearGradient3028);fill-opacity:1;fill-rule:nonzero;stroke:none"
             id="path3034" /></g></g><g
         id="g3036"><g
           id="g3038"
           clip-path="url(#clipPath3040)"><path
             d="m 2523.81,1476.2 c 0,-552.29 -447.72,-1000.001 -1000,-1000.001 -552.283,0 -999.998,447.711 -999.998,1000.001 0,552.28 447.715,1000 999.998,1000 552.28,0 1000,-447.72 1000,-1000"
             style="fill:url(#linearGradient3044);fill-opacity:1;fill-rule:nonzero;stroke:none"
             id="path3050" /></g></g></g></g></svg>